<?xml version="1.0" encoding="UTF-8"?>
<!DOCTYPE svg PUBLIC "-//W3C//DTD SVG 1.1//EN" "http://www.w3.org/Graphics/SVG/1.1/DTD/svg11.dtd">
<!-- Creator: CorelDRAW X6 -->
<svg xmlns="http://www.w3.org/2000/svg" xml:space="preserve" width="100%" height="100%" version="1.1" style="shape-rendering:geometricPrecision; text-rendering:geometricPrecision; image-rendering:optimizeQuality; fill-rule:evenodd; clip-rule:evenodd"
viewBox="0 0 500 500"
 xmlns:xlink="http://www.w3.org/1999/xlink">
 <defs>
  <style type="text/css">
   <![CDATA[
    .fil1 {fill:#001eff;fill-rule:nonzero}
   ]]>
  </style>
 </defs>
 <g id="Layer_x0020_1">
  <metadata id="CorelCorpID_0Corel-Layer"/>
  <path class="fil1" d="M126 45l248 0c58,0 106,48 106,106l0 86c0,58 -48,106 -106,106l-107 0 -104 104c-1,0 -10,11 -22,7 -8,-2 -13,-9 -13,-17l0 -94c-60,0 -108,-46 -108,-106l0 -86c0,-58 48,-106 106,-106zm-5 220c-6,0 -10,-4 -10,-10 0,-6 4,-10 10,-10l143 0c6,0 10,4 10,10 0,6 -4,10 -10,10l-143 0zm0 -57c-6,0 -10,-5 -10,-10 0,-6 4,-10 10,-10l258 0c6,0 10,4 10,10 0,5 -4,10 -10,10l-258 0zm0 -58c-6,0 -10,-4 -10,-10 0,-6 4,-10 10,-10l207 0c5,0 10,4 10,10 0,6 -5,10 -10,10l-207 0zm253 -77l-248 0c-43,0 -78,35 -78,78l0 86c0,43 35,78 78,78l5 0c13,0 25,12 25,25l0 74 99 -99 119 0c43,0 78,-35 78,-78l0 -86c0,-43 -35,-78 -78,-78z"/>
 </g>
</svg>
